# xmcd CD database file
#
# Track frame offsets:
#	150
#	15542
#	38185
#	63992
#
# Disc length: 1120 seconds
#
# Revision: 0
# Processed by: cddbd v1.5PL3 Copyright (c) Steve Scherf et al.
# Submitted via: CDex 1.51
#
DISCID=29045e04
DTITLE=the youth - 青春時代
DYEAR=2002
DGENRE=Rock
TTITLE0=青春時代
TTITLE1=月光
TTITLE2=我が子へと
TTITLE3=風ニ吹カレテ・・・
EXTD=YEAR: 2002
EXTT0=
EXTT1=
EXTT2=
EXTT3=
PLAYORDER=
